<svg width="31" height="30" viewBox="0 0 31 30" fill="none" xmlns="http://www.w3.org/2000/svg">
<path d="M19.8462 17.7537L28.5706 14.5811C29.0509 14.4065 29.4661 14.0889 29.7603 13.671C30.0546 13.2532 30.2137 12.7552 30.2162 12.2442C30.2188 11.7331 30.0647 11.2336 29.7746 10.8128C29.4846 10.3921 29.0726 10.0703 28.5941 9.89087L4.33824 0.794958C3.88879 0.626386 3.4003 0.590781 2.93116 0.692397C2.46201 0.794012 2.03203 1.02855 1.69261 1.36799C1.35319 1.70743 1.11867 2.13741 1.01708 2.60656C0.915485 3.07572 0.951114 3.5642 1.11971 4.01365V4.01357L10.2156 28.2694C10.3915 28.7476 10.7106 29.16 11.1293 29.4503C11.5481 29.7406 12.0462 29.8947 12.5557 29.8916H12.5688C13.0806 29.8922 13.5801 29.7344 13.9985 29.4397C14.417 29.145 14.7339 28.728 14.9059 28.246L18.0784 19.5216L27.9405 29.3837C28.175 29.6181 28.4929 29.7498 28.8245 29.7498C29.156 29.7498 29.474 29.6181 29.7084 29.3837C29.9429 29.1492 30.0746 28.8313 30.0746 28.4997C30.0746 28.1682 29.9429 27.8502 29.7084 27.6158L19.8462 17.7537Z" fill="url(#paint0_linear_12514_2809)"/>
<defs>
<linearGradient id="paint0_linear_12514_2809" x1="-0.673763" y1="-0.607635" x2="37.447" y2="7.82115" gradientUnits="userSpaceOnUse">
<stop stop-color="#176FEB"/>
<stop offset="1" stop-color="#FF80FF"/>
</linearGradient>
</defs>
</svg>
