<svg width="26" height="26" viewBox="0 0 26 26" fill="none" xmlns="http://www.w3.org/2000/svg">
<path d="M13 0C10.4288 0 7.91543 0.762437 5.77759 2.1909C3.63975 3.61935 1.97351 5.64968 0.989572 8.02512C0.0056327 10.4006 -0.251811 13.0144 0.249797 15.5362C0.751405 18.0579 1.98953 20.3743 3.80762 22.1924C5.6257 24.0105 7.94208 25.2486 10.4638 25.7502C12.9856 26.2518 15.5995 25.9944 17.9749 25.0104C20.3503 24.0265 22.3807 22.3603 23.8091 20.2224C25.2376 18.0846 26 15.5712 26 13C25.9961 9.55338 24.6252 6.24905 22.1881 3.81192C19.751 1.37479 16.4466 0.00390097 13 0V0ZM19.5437 7.7655L16.0319 15.5333C15.9289 15.761 15.7443 15.942 15.5145 16.0404L8.08997 19.2224C7.90628 19.3012 7.7032 19.3231 7.50694 19.2853C7.31068 19.2475 7.13025 19.1518 6.98892 19.0105C6.84759 18.8691 6.75185 18.6887 6.71405 18.4925C6.67625 18.2962 6.69813 18.0931 6.77686 17.9094L9.95875 10.4847C10.057 10.2557 10.2372 10.0715 10.4641 9.96838L18.2186 6.44324C18.4038 6.35906 18.6102 6.33335 18.8104 6.36953C19.0105 6.40571 19.1949 6.50206 19.3388 6.64573C19.4828 6.78939 19.5796 6.97355 19.6162 7.17362C19.6528 7.37369 19.6275 7.58016 19.5437 7.7655Z" fill="url(#paint0_linear_12514_2390)"/>
<defs>
<linearGradient id="paint0_linear_12514_2390" x1="-1.45234" y1="-1.105" x2="32.426" y2="6.38579" gradientUnits="userSpaceOnUse">
<stop stop-color="#176FEB"/>
<stop offset="1" stop-color="#FF80FF"/>
</linearGradient>
</defs>
</svg>
