<svg width="38" height="37" viewBox="0 0 38 37" fill="none" xmlns="http://www.w3.org/2000/svg">
<path d="M30.9977 22.0838C30.9741 22.5954 30.7926 23.0871 30.4782 23.4913C30.1637 23.8955 29.7317 24.1923 29.2416 24.3409L20.9456 26.9128L17.5205 34.8946C17.3188 35.3645 16.9779 35.7612 16.5437 36.0313C16.1095 36.3014 15.6029 36.4319 15.0922 36.4051C14.5816 36.3784 14.0914 36.1957 13.6878 35.8816C13.2842 35.5676 12.9866 35.1374 12.8352 34.649L10.2632 26.353L2.28149 22.928C1.81159 22.7263 1.41484 22.3853 1.14473 21.9511C0.874624 21.5169 0.744155 21.0103 0.770918 20.4997C0.79768 19.989 0.980387 19.4989 1.2944 19.0953C1.60841 18.6917 2.03863 18.3941 2.52704 18.2426L10.823 15.6706L14.2481 7.68894C14.4498 7.21903 14.7907 6.82228 15.2249 6.55217C15.6591 6.28207 16.1657 6.1516 16.6764 6.17836C17.187 6.20512 17.6772 6.38783 18.0808 6.70184C18.4844 7.01586 18.782 7.44607 18.9334 7.93448L21.5054 16.2305L29.4871 19.6555C29.959 19.8545 30.3576 20.1949 30.6281 20.6297C30.8986 21.0646 31.0277 21.5726 30.9977 22.0838ZM22.9108 6.6394L25.4073 6.77024L25.2765 9.26682C25.2592 9.59788 25.374 9.92228 25.5959 10.1686C25.8177 10.415 26.1283 10.5632 26.4594 10.5805C26.7904 10.5979 27.1148 10.483 27.3612 10.2612C27.6076 10.0393 27.7557 9.72872 27.7731 9.39766L27.9039 6.90108L30.4005 7.03192C30.7316 7.04927 31.056 6.9344 31.3023 6.71257C31.5487 6.49073 31.6969 6.18012 31.7142 5.84905C31.7316 5.51799 31.6167 5.19359 31.3948 4.94722C31.173 4.70085 30.8624 4.5527 30.5313 4.53535L28.0348 4.40451L28.1656 1.90793C28.183 1.57687 28.0681 1.25247 27.8462 1.0061C27.6244 0.759733 27.3138 0.611578 26.9827 0.594227C26.6517 0.576877 26.3273 0.691752 26.0809 0.913583C25.8345 1.13541 25.6864 1.44603 25.669 1.77709L25.5382 4.27367L23.0416 4.14283C22.7105 4.12548 22.3861 4.24035 22.1398 4.46218C21.8934 4.68401 21.7453 4.99463 21.7279 5.32569C21.7106 5.65676 21.8254 5.98116 22.0473 6.22753C22.2691 6.4739 22.5797 6.62205 22.9108 6.6394ZM36.3803 12.3522L35.132 12.2867L35.1974 11.0385C35.2147 10.7074 35.0999 10.383 34.878 10.1366C34.6562 9.89026 34.3456 9.74211 34.0145 9.72476C33.6835 9.7074 33.3591 9.82228 33.1127 10.0441C32.8663 10.2659 32.7182 10.5766 32.7008 10.9076L32.6354 12.1559L31.3871 12.0905C31.056 12.0731 30.7316 12.188 30.4853 12.4098C30.2389 12.6317 30.0907 12.9423 30.0734 13.2734C30.056 13.6044 30.1709 13.9288 30.3928 14.1752C30.6146 14.4216 30.9252 14.5697 31.2563 14.5871L32.5046 14.6525L32.4391 15.9008C32.4218 16.2318 32.5367 16.5562 32.7585 16.8026C32.9803 17.049 33.2909 17.1971 33.622 17.2145C33.9531 17.2318 34.2775 17.117 34.5238 16.8951C34.7702 16.6733 34.9184 16.3627 34.9357 16.0316L35.0011 14.7833L36.2494 14.8487C36.5805 14.8661 36.9049 14.7512 37.1512 14.5294C37.3976 14.3076 37.5458 13.9969 37.5631 13.6659C37.5805 13.3348 37.4656 13.0104 37.2438 12.764C37.0219 12.5177 36.7113 12.3695 36.3803 12.3522Z" fill="url(#paint0_linear_12514_783)"/>
<defs>
<linearGradient id="paint0_linear_12514_783" x1="-0.0656244" y1="-2.37176" x2="46.7298" y2="10.5776" gradientUnits="userSpaceOnUse">
<stop stop-color="#176FEB"/>
<stop offset="1" stop-color="#FF80FF"/>
</linearGradient>
</defs>
</svg>
